<?xml version="1.0" standalone="no"?>
<!DOCTYPE svg PUBLIC "-//W3C//DTD SVG 20010904//EN"
 "http://www.w3.org/TR/2001/REC-SVG-20010904/DTD/svg10.dtd">
<svg version="1.0" xmlns="http://www.w3.org/2000/svg"
 width="416.000000pt" height="416.000000pt" viewBox="0 0 416.000000 416.000000"
 preserveAspectRatio="xMidYMid meet">
<metadata>
Created by potrace 1.14, written by Peter Selinger 2001-2017
</metadata>
<g transform="translate(0.000000,416.000000) scale(0.100000,-0.100000)"
fill="#000000" stroke="none">
<path d="M1995 3896 c-16 -7 -86 -45 -155 -83 -69 -38 -152 -85 -185 -103 -33
-18 -89 -49 -125 -70 -36 -20 -85 -48 -110 -62 -114 -64 -160 -90 -376 -219
-127 -76 -250 -153 -275 -171 -24 -18 -56 -41 -71 -51 -16 -10 -28 -21 -28
-25 0 -11 67 -49 168 -95 119 -54 158 -66 204 -60 43 5 155 53 258 113 36 20
88 50 115 65 63 35 260 147 283 160 168 100 272 145 329 145 35 0 88 -25 200
-91 48 -29 115 -68 148 -87 33 -19 76 -44 95 -55 102 -59 157 -89 173 -94 9
-3 17 -9 17 -14 0 -5 4 -9 9 -9 5 0 40 -17 78 -39 37 -21 100 -55 138 -76 219
-117 369 -202 389 -220 21 -19 23 -30 21 -91 -3 -77 -14 -212 -20 -259 -2 -16
-7 -73 -10 -126 -4 -53 -8 -105 -10 -115 -2 -11 -4 -23 -4 -28 -1 -5 -7 -4
-13 1 -7 6 -56 33 -108 60 -137 73 -263 143 -280 158 -8 7 -64 40 -125 73 -60
33 -148 83 -195 111 -47 28 -88 51 -92 51 -4 0 -66 34 -137 75 -126 73 -257
126 -310 127 -40 0 -110 -18 -173 -46 -52 -23 -148 -103 -148 -123 0 -5 32
-29 71 -54 38 -24 85 -53 103 -65 31 -20 130 -79 191 -114 17 -9 62 -36 100
-60 93 -57 385 -229 460 -270 33 -18 155 -87 270 -153 116 -66 224 -128 240
-137 25 -14 147 -87 230 -137 11 -6 34 -19 50 -27 40 -20 169 -91 224 -123
l44 -25 -7 33 c-7 32 -8 71 -7 279 0 47 0 94 0 105 0 11 0 75 0 142 0 67 -2
131 -4 142 -2 12 1 21 6 21 6 0 8 4 4 10 -3 5 -6 29 -5 52 3 523 1 690 -9 720
-10 30 -25 42 -104 83 -50 27 -121 66 -157 88 -35 22 -114 67 -175 102 -130
72 -276 157 -473 272 -78 45 -145 83 -149 83 -3 0 -20 10 -37 23 -34 26 -171
108 -199 119 -10 4 -51 28 -91 52 -39 24 -106 62 -147 84 -68 37 -76 39 -104
28z m192 -112 c-9 -10 -77 20 -98 42 -24 27 -23 27 39 -6 34 -18 61 -34 59
-36z m-823 -277 c-2 -7 -30 -28 -62 -47 -51 -29 -110 -67 -312 -199 -30 -20
-57 -39 -60 -42 -3 -3 -27 -18 -55 -33 -52 -27 -85 -33 -85 -16 0 6 6 10 14
10 8 0 16 4 18 8 3 8 144 102 153 102 3 0 27 15 53 33 26 17 57 37 67 43 37
20 110 62 190 108 44 25 81 46 82 46 1 0 0 -6 -3 -13z m1561 -1222 c66 -39
142 -82 169 -96 40 -20 45 -25 27 -27 -12 -2 -34 4 -48 14 -15 9 -54 31 -87
49 -98 52 -126 70 -126 78 0 4 -6 7 -13 7 -7 0 -28 13 -47 30 -50 43 -15 27
125 -55z m685 -755 c0 -5 -5 -10 -11 -10 -5 0 -7 5 -4 10 3 6 8 10 11 10 2 0
4 -4 4 -10z"/>
<path d="M384 2502 c-1 -48 -4 -163 -8 -257 -28 -742 -26 -1103 5 -1141 10
-12 97 -71 244 -166 127 -81 508 -307 640 -379 44 -24 82 -47 83 -51 2 -4 12
-8 22 -8 10 0 21 -4 25 -9 3 -5 24 -20 48 -33 23 -14 115 -66 205 -116 226
-128 375 -204 381 -194 3 5 40 26 81 49 41 22 95 51 120 65 25 14 79 43 120
65 41 22 100 56 131 76 58 37 104 64 177 103 23 12 79 44 123 71 102 61 124
74 179 105 120 67 166 93 175 100 6 4 41 29 80 54 38 26 75 53 83 60 7 8 23
19 34 25 21 11 21 11 -3 30 -13 10 -28 19 -32 19 -7 0 -67 39 -77 51 -13 14
-139 70 -177 78 -80 17 -141 -8 -418 -169 -151 -88 -294 -165 -445 -240 -136
-67 -181 -85 -200 -79 -43 12 -179 78 -248 121 -37 22 -101 59 -142 81 -41 22
-115 65 -165 95 -49 30 -124 71 -166 93 -43 21 -118 63 -168 94 -51 30 -94 55
-96 55 -5 0 -72 43 -216 137 -22 14 -39 35 -42 49 -6 32 -2 176 8 274 11 110
12 121 19 168 3 23 9 61 12 85 3 23 8 44 10 46 10 10 94 -25 154 -64 54 -35
133 -83 332 -204 193 -117 375 -219 564 -316 137 -71 144 -71 274 -30 100 31
147 52 168 73 10 9 35 30 56 46 l37 28 -68 35 c-37 19 -75 40 -83 47 -8 7 -80
48 -160 92 -80 43 -152 84 -162 89 -9 6 -54 32 -100 59 -46 27 -117 70 -158
95 -41 25 -109 64 -150 87 -41 22 -115 65 -165 96 -49 30 -115 68 -145 83 -30
16 -73 41 -95 55 -34 23 -100 61 -180 104 -11 6 -110 65 -220 130 -282 167
-296 176 -298 176 -1 0 -3 -39 -3 -88z m50 32 c21 -8 20 -21 -2 -26 -12 -4
-18 1 -18 13 0 22 -1 21 20 13z m426 -1337 c0 -5 -13 1 -30 13 -16 12 -30 24
-30 26 0 3 14 -3 30 -13 17 -9 30 -21 30 -26z"/>
</g>
</svg>
